<svg width="44" height="44" viewBox="0 0 44 44" fill="none" xmlns="http://www.w3.org/2000/svg">
<path d="M22 42C33.046 42 42 33.046 42 22C42 10.954 33.046 2 22 2C10.954 2 2 10.954 2 22C2 33.046 10.954 42 22 42Z" stroke="black" stroke-width="4" stroke-linejoin="round"/>
<path d="M22 16C22.7956 16 23.5587 15.6839 24.1213 15.1213C24.6839 14.5587 25 13.7956 25 13C25 12.2044 24.6839 11.4413 24.1213 10.8787C23.5587 10.3161 22.7956 10 22 10C21.2044 10 20.4413 10.3161 19.8787 10.8787C19.3161 11.4413 19 12.2044 19 13C19 13.7956 19.3161 14.5587 19.8787 15.1213C20.4413 15.6839 21.2044 16 22 16ZM22 34C22.7956 34 23.5587 33.6839 24.1213 33.1213C24.6839 32.5587 25 31.7956 25 31C25 30.2044 24.6839 29.4413 24.1213 28.8787C23.5587 28.3161 22.7956 28 22 28C21.2044 28 20.4413 28.3161 19.8787 28.8787C19.3161 29.4413 19 30.2044 19 31C19 31.7956 19.3161 32.5587 19.8787 33.1213C20.4413 33.6839 21.2044 34 22 34ZM13 25C13.7956 25 14.5587 24.6839 15.1213 24.1213C15.6839 23.5587 16 22.7956 16 22C16 21.2044 15.6839 20.4413 15.1213 19.8787C14.5587 19.3161 13.7956 19 13 19C12.2044 19 11.4413 19.3161 10.8787 19.8787C10.3161 20.4413 10 21.2044 10 22C10 22.7956 10.3161 23.5587 10.8787 24.1213C11.4413 24.6839 12.2044 25 13 25V25ZM31 25C31.7956 25 32.5587 24.6839 33.1213 24.1213C33.6839 23.5587 34 22.7956 34 22C34 21.2044 33.6839 20.4413 33.1213 19.8787C32.5587 19.3161 31.7956 19 31 19C30.2044 19 29.4413 19.3161 28.8787 19.8787C28.3161 20.4413 28 21.2044 28 22C28 22.7956 28.3161 23.5587 28.8787 24.1213C29.4413 24.6839 30.2044 25 31 25Z" stroke="black" stroke-width="4" stroke-linejoin="round"/>
<path d="M22 42H42" stroke="black" stroke-width="4" stroke-linecap="round"/>
</svg>
